<svg xmlns="http://www.w3.org/2000/svg" viewBox="0 0 32 32" width="32" height="32" shape-rendering="crispEdges">
  <path fill="#9C0059" opacity="0.72" transform="translate(1 1)" d="M1 2h4v4H1z M13 2h4v4h-4z M1 6h4v4H1z M13 6h4v4h-4z M1 10h4v4H1z M13 10h4v4h-4z M1 14h4v4H1z M7 14h4v4H7z M13 14h4v4h-4z M1 18h6v4H1z M7 18h4v4H7z M11 18h6v4h-6z M1 22h4v4H1z M13 22h4v4h-4z M1 26h4v4H1z M13 26h4v4h-4z" />
  <path fill="#0068AA" opacity="0.72" transform="translate(1 1)" d="M18 2h4v4h-4z M22 2h4v4h-4z M26 2h4v4h-4z M18 6h4v4h-4z M26 6h5v4h-5z M18 10h4v4h-4z M27 10h4v4h-4z M18 14h4v4h-4z M27 14h4v4h-4z M18 18h4v4h-4z M27 18h4v4h-4z M18 22h4v4h-4z M26 22h5v4h-5z M18 26h4v4h-4z M22 26h4v4h-4z M26 26h4v4h-4z" />
  <path fill="#FF4DAA" opacity="0.62" transform="translate(-1 -1)" d="M1 2h4v4H1z M13 2h4v4h-4z M1 6h4v4H1z M13 6h4v4h-4z M1 10h4v4H1z M13 10h4v4h-4z M1 14h4v4H1z M7 14h4v4H7z M13 14h4v4h-4z M1 18h6v4H1z M7 18h4v4H7z M11 18h6v4h-6z M1 22h4v4H1z M13 22h4v4h-4z M1 26h4v4H1z M13 26h4v4h-4z" />
  <path fill="#4FC7FF" opacity="0.62" transform="translate(-1 -1)" d="M18 2h4v4h-4z M22 2h4v4h-4z M26 2h4v4h-4z M18 6h4v4h-4z M26 6h5v4h-5z M18 10h4v4h-4z M27 10h4v4h-4z M18 14h4v4h-4z M27 14h4v4h-4z M18 18h4v4h-4z M27 18h4v4h-4z M18 22h4v4h-4z M26 22h5v4h-5z M18 26h4v4h-4z M22 26h4v4h-4z M26 26h4v4h-4z" />
  <path fill="#FF007B" d="M1 2h4v4H1z M13 2h4v4h-4z M1 6h4v4H1z M13 6h4v4h-4z M1 10h4v4H1z M13 10h4v4h-4z M1 14h4v4H1z M7 14h4v4H7z M13 14h4v4h-4z M1 18h6v4H1z M7 18h4v4H7z M11 18h6v4h-6z M1 22h4v4H1z M13 22h4v4h-4z M1 26h4v4H1z M13 26h4v4h-4z" />
  <path fill="#00A6FF" d="M18 2h4v4h-4z M22 2h4v4h-4z M26 2h4v4h-4z M18 6h4v4h-4z M26 6h5v4h-5z M18 10h4v4h-4z M27 10h4v4h-4z M18 14h4v4h-4z M27 14h4v4h-4z M18 18h4v4h-4z M27 18h4v4h-4z M18 22h4v4h-4z M26 22h5v4h-5z M18 26h4v4h-4z M22 26h4v4h-4z M26 26h4v4h-4z" />
  <path fill="#FF86C8" opacity="0.78" d="M1 2h4v4H1z M13 2h4v4h-4z" />
  <path fill="#8ADEFF" opacity="0.78" d="M18 2h4v4h-4z M22 2h4v4h-4z M26 2h4v4h-4z" />
</svg>
