<svg xmlns="http://www.w3.org/2000/svg" viewBox="0 0 32 32" width="32" height="32" shape-rendering="crispEdges">
  <path fill="#9C0059" opacity="0.72" transform="translate(1 1)" d="M0 3h4v4H0z M12 3h4v4h-4z M0 7h4v4H0z M12 7h4v4h-4z M0 11h4v4H0z M12 11h4v4h-4z M0 15h4v4H0z M6 15h4v4H6z M12 15h4v4h-4z M0 19h6v4H0z M6 19h4v4H6z M10 19h6v4h-6z M0 23h4v4H0z M12 23h4v4h-4z M0 27h4v4H0z M12 27h4v4h-4z" />
  <path fill="#0068AA" opacity="0.72" transform="translate(1 1)" d="M17 3h4v4h-4z M21 3h4v4h-4z M25 3h4v4h-4z M17 7h4v4h-4z M25 7h5v4h-5z M17 11h4v4h-4z M26 11h4v4h-4z M17 15h4v4h-4z M26 15h4v4h-4z M17 19h4v4h-4z M26 19h4v4h-4z M17 23h4v4h-4z M25 23h5v4h-5z M17 27h4v4h-4z M21 27h4v4h-4z M25 27h4v4h-4z" />
  <path fill="#FF4DAA" opacity="0.62" transform="translate(-1 -1)" d="M0 3h4v4H0z M12 3h4v4h-4z M0 7h4v4H0z M12 7h4v4h-4z M0 11h4v4H0z M12 11h4v4h-4z M0 15h4v4H0z M6 15h4v4H6z M12 15h4v4h-4z M0 19h6v4H0z M6 19h4v4H6z M10 19h6v4h-6z M0 23h4v4H0z M12 23h4v4h-4z M0 27h4v4H0z M12 27h4v4h-4z" />
  <path fill="#4FC7FF" opacity="0.62" transform="translate(-1 -1)" d="M17 3h4v4h-4z M21 3h4v4h-4z M25 3h4v4h-4z M17 7h4v4h-4z M25 7h5v4h-5z M17 11h4v4h-4z M26 11h4v4h-4z M17 15h4v4h-4z M26 15h4v4h-4z M17 19h4v4h-4z M26 19h4v4h-4z M17 23h4v4h-4z M25 23h5v4h-5z M17 27h4v4h-4z M21 27h4v4h-4z M25 27h4v4h-4z" />
  <path fill="#FF007B" d="M0 3h4v4H0z M12 3h4v4h-4z M0 7h4v4H0z M12 7h4v4h-4z M0 11h4v4H0z M12 11h4v4h-4z M0 15h4v4H0z M6 15h4v4H6z M12 15h4v4h-4z M0 19h6v4H0z M6 19h4v4H6z M10 19h6v4h-6z M0 23h4v4H0z M12 23h4v4h-4z M0 27h4v4H0z M12 27h4v4h-4z" />
  <path fill="#00A6FF" d="M17 3h4v4h-4z M21 3h4v4h-4z M25 3h4v4h-4z M17 7h4v4h-4z M25 7h5v4h-5z M17 11h4v4h-4z M26 11h4v4h-4z M17 15h4v4h-4z M26 15h4v4h-4z M17 19h4v4h-4z M26 19h4v4h-4z M17 23h4v4h-4z M25 23h5v4h-5z M17 27h4v4h-4z M21 27h4v4h-4z M25 27h4v4h-4z" />
  <path fill="#FF86C8" opacity="0.78" d="M0 3h4v4H0z M12 3h4v4h-4z" />
  <path fill="#8ADEFF" opacity="0.78" d="M17 3h4v4h-4z M21 3h4v4h-4z M25 3h4v4h-4z" />
</svg>
